<mxfile host="app.diagrams.net" modified="2020-04-03T12:06:08.802Z" agent="5.0 (Macintosh; Intel Mac OS X 10_15_4) AppleWebKit/537.36 (KHTML, like Gecko) Chrome/80.0.3987.122 YaBrowser/20.3.0.2220 Yowser/2.5 Yptp/1.23 Safari/537.36" etag="_Wx7cO0HUrWg7G_HMuUn" version="12.9.6" type="github">
  <diagram id="j-gT7wjGI_pT5W8-CaGp" name="Page-1">
    <mxGraphModel dx="948" dy="606" grid="1" gridSize="10" guides="1" tooltips="1" connect="1" arrows="1" fold="1" page="0" pageScale="1" pageWidth="827" pageHeight="1169" math="0" shadow="0">
      <root>
        <mxCell id="0" />
        <mxCell id="1" parent="0" />
        <mxCell id="fg7lsptGDw_mkv9HvV7D-1" value="Server" style="rounded=0;whiteSpace=wrap;html=1;" vertex="1" parent="1">
          <mxGeometry x="360" y="220" width="120" height="120" as="geometry" />
        </mxCell>
      </root>
    </mxGraphModel>
  </diagram>
</mxfile>
